<?xml version="1.0" standalone="no"?>
<!DOCTYPE svg PUBLIC "-//W3C//DTD SVG 20010904//EN"
 "http://www.w3.org/TR/2001/REC-SVG-20010904/DTD/svg10.dtd">
<svg version="1.0" xmlns="http://www.w3.org/2000/svg"
 width="1024.000000pt" height="838.000000pt" viewBox="0 0 1024.000000 838.000000"
 preserveAspectRatio="xMidYMid meet">
<metadata>
Created by potrace 1.16, written by Peter Selinger 2001-2019
</metadata>
<g transform="translate(0.000000,838.000000) scale(0.100000,-0.100000)"
fill="#000000" stroke="none">
<path d="M4995 6824 c-175 -17 -421 -61 -585 -106 -165 -45 -453 -175 -624
-283 -180 -113 -437 -341 -452 -400 -9 -35 11 -55 54 -55 30 0 45 10 107 73
168 170 326 283 540 388 237 115 479 193 730 236 89 14 164 18 385 18 243 0
289 -3 398 -23 303 -56 582 -160 826 -309 127 -77 195 -131 327 -260 98 -95
122 -113 148 -113 21 0 35 7 47 25 15 24 15 26 -19 72 -156 211 -532 462 -882
588 -143 52 -382 111 -520 129 -121 15 -405 27 -480 20z"/>
<path d="M4910 6460 c-246 -40 -398 -85 -607 -178 -201 -89 -385 -221 -568
-406 -283 -287 -428 -543 -526 -934 -49 -193 -63 -341 -56 -577 12 -397 128
-773 337 -1090 232 -352 541 -601 945 -760 122 -48 363 -103 533 -120 385 -40
786 47 1124 244 226 132 432 305 522 439 25 37 66 92 91 122 25 30 56 78 69
105 13 28 34 58 46 68 12 10 35 47 51 82 16 35 33 66 39 70 35 21 122 266 155
433 38 198 47 293 48 497 0 218 -17 352 -63 510 -108 371 -191 532 -411 796
-108 130 -194 212 -331 314 -146 110 -248 169 -423 243 -237 101 -454 150
-705 157 -122 4 -180 0 -270 -15z m420 -105 c168 -16 460 -105 632 -192 135
-69 255 -153 405 -286 134 -119 188 -178 296 -327 97 -135 144 -221 206 -378
113 -287 136 -410 135 -752 0 -239 -2 -263 -28 -385 -62 -294 -176 -549 -351
-784 -361 -486 -876 -750 -1462 -751 -560 0 -1020 193 -1394 588 -150 158
-321 435 -389 627 -144 408 -168 899 -63 1265 30 106 117 323 147 370 13 19
33 55 45 80 79 164 358 454 584 608 217 147 448 237 757 294 111 20 323 38
385 32 17 -2 59 -6 95 -9z"/>
<path d="M5354 6006 c-18 -14 -19 -31 -20 -408 -1 -438 1 -425 -72 -512 -51
-61 -88 -86 -130 -86 -64 0 -151 60 -184 128 -22 46 -22 54 -20 307 4 358 -5
532 -29 556 -26 26 -86 26 -94 -1 -3 -11 -7 -201 -7 -422 -1 -398 -1 -404 22
-463 31 -81 133 -184 203 -205 l47 -15 0 -1010 c0 -794 3 -1015 13 -1035 9
-19 22 -26 49 -28 46 -4 59 17 56 90 -1 29 -2 489 0 1021 2 912 3 968 20 975
46 19 120 78 150 120 18 26 43 62 57 80 47 66 51 111 41 572 -6 267 -10 318
-23 333 -19 21 -52 22 -79 3z"/>
<path d="M5090 5990 c-19 -19 -20 -33 -20 -405 0 -378 0 -384 21 -395 27 -15
77 -3 89 20 6 11 10 165 10 393 0 350 -1 375 -18 390 -25 23 -58 21 -82 -3z"/>
<path d="M4023 5606 c-104 -34 -226 -143 -281 -251 -174 -347 43 -799 400
-832 l57 -6 11 -50 c16 -74 40 -123 107 -212 79 -105 106 -129 147 -130 l33
-1 -34 69 c-19 38 -53 97 -75 130 -23 34 -56 96 -74 138 l-32 76 33 12 c44 16
128 92 148 133 9 19 28 44 43 58 38 36 81 130 94 211 15 90 0 210 -41 324 -54
148 -130 235 -265 302 -63 31 -87 37 -152 40 -47 2 -93 -2 -119 -11z m192
-130 c157 -73 254 -252 255 -466 0 -73 -4 -94 -29 -146 -64 -136 -181 -214
-299 -200 -138 16 -233 102 -292 263 -20 56 -22 76 -18 197 3 118 6 139 24
163 12 16 31 47 42 70 23 44 52 68 136 114 63 35 114 37 181 5z"/>
<path d="M5789 5462 c-91 -58 -133 -129 -132 -222 2 -118 56 -220 197 -367 99
-104 226 -213 248 -213 48 0 326 257 368 341 12 23 35 60 51 82 26 36 29 48
29 116 0 100 -23 163 -80 222 -55 57 -132 80 -199 61 -38 -12 -118 -79 -138
-116 -10 -18 -15 -15 -65 36 -87 89 -196 112 -279 60z"/>
<path d="M4617 4320 c-32 -26 -44 -79 -28 -130 22 -74 109 -95 162 -39 39 42
47 89 20 132 -35 58 -106 74 -154 37z"/>
<path d="M5564 4296 c-29 -29 -34 -41 -34 -79 0 -60 30 -96 85 -103 55 -7 98
21 120 79 16 42 16 47 0 80 -18 39 -50 57 -101 57 -28 0 -44 -8 -70 -34z"/>
<path d="M3601 4277 c-22 -28 -23 -78 -1 -212 46 -292 131 -477 301 -659 98
-105 217 -181 364 -234 63 -22 86 -25 232 -26 l163 -1 82 -90 c130 -142 145
-155 181 -155 56 0 62 11 38 66 -16 35 -53 78 -128 151 l-107 102 -1 98 c-2
115 -22 196 -75 310 -74 158 -169 267 -323 369 -187 125 -375 213 -549 258
-135 35 -163 39 -177 23z m397 -329 c3 77 12 102 26 66 3 -9 6 -48 6 -87 l0
-72 118 -113 c126 -122 212 -198 212 -187 0 3 -6 18 -13 33 -8 15 -19 56 -26
92 -7 36 -17 85 -22 109 -14 60 -5 62 24 4 29 -58 47 -130 52 -208 3 -52 8
-62 44 -99 44 -45 101 -83 101 -68 0 5 -7 29 -15 52 -8 24 -17 75 -20 114 -5
68 -5 70 10 40 15 -35 35 -139 35 -192 0 -25 13 -49 56 -100 l55 -67 -31 -3
c-46 -5 -113 39 -206 135 l-80 83 -115 0 c-80 1 -121 5 -139 15 -14 8 -20 15
-15 15 6 0 3 5 -5 11 -11 7 17 9 97 6 l112 -4 -91 98 c-50 55 -122 124 -160
155 -123 101 -208 211 -208 270 0 13 29 -10 98 -81 l97 -100 3 83z"/>
<path d="M6571 4274 c-35 -7 -85 -20 -111 -29 -27 -9 -86 -26 -131 -39 -232
-65 -415 -164 -542 -293 -164 -167 -244 -338 -254 -540 -4 -72 -2 -107 6 -117
10 -12 -6 -35 -92 -128 -128 -139 -157 -180 -157 -224 0 -19 4 -34 8 -34 5 0
35 17 68 38 63 42 124 102 193 195 37 48 47 56 65 50 11 -5 75 -8 141 -7 139
1 217 18 315 70 83 44 227 150 263 195 15 19 46 56 68 82 21 27 47 63 56 80 8
18 29 48 46 67 17 19 45 66 62 105 70 154 136 477 107 521 -13 20 -46 22 -111
8z m-101 -230 c0 -22 -197 -241 -278 -309 -92 -77 -192 -177 -192 -192 0 -10
24 -13 90 -13 82 0 90 -2 90 -19 0 -11 -4 -22 -8 -25 -5 -3 -60 -10 -123 -16
-63 -7 -127 -17 -144 -23 -16 -6 -65 -45 -107 -85 -112 -108 -178 -148 -178
-108 0 25 85 128 177 215 48 46 117 111 153 146 36 34 88 79 115 100 28 21 88
73 135 116 126 117 254 228 263 229 4 0 7 -7 7 -16z"/>
<path d="M7025 5843 c4 -16 37 -68 74 -118 74 -97 151 -213 151 -226 0 -5 -33
6 -72 23 -55 24 -89 31 -138 32 -65 1 -65 1 -68 -28 -5 -42 57 -159 122 -232
69 -77 114 -97 220 -98 l78 -1 18 -35 c34 -66 61 -177 79 -321 10 -79 17 -145
16 -147 -1 -1 -36 12 -76 31 -50 23 -79 42 -88 60 -22 42 -4 44 37 5 40 -38
82 -68 94 -68 24 0 -7 94 -45 137 -35 40 -156 103 -199 103 -92 0 -43 -195 80
-320 56 -57 91 -75 190 -100 l42 -11 0 -121 c0 -173 -47 -445 -78 -456 -10 -3
-11 5 -5 34 14 66 7 156 -14 204 -26 57 -93 134 -133 150 -67 28 -99 -37 -87
-179 12 -148 88 -266 221 -346 15 -9 14 -19 -15 -110 -29 -94 -157 -367 -178
-379 -5 -4 -13 15 -17 41 -4 27 -11 59 -16 73 -13 35 -26 120 -18 120 10 0 40
-93 40 -127 0 -26 3 -30 20 -26 48 13 50 154 4 251 -29 60 -60 85 -101 80 -22
-2 -34 -14 -57 -58 -63 -116 -38 -306 55 -429 l40 -53 -25 -32 c-13 -18 -49
-67 -80 -110 -68 -94 -193 -233 -202 -223 -8 8 39 73 73 102 55 46 56 252 2
306 -47 47 -99 3 -167 -139 -37 -76 -37 -78 -37 -202 0 -98 4 -132 17 -156
l17 -32 -52 -49 c-372 -351 -946 -601 -1452 -633 -334 -21 -721 41 -1001 160
-184 78 -398 190 -524 275 -69 46 -232 170 -279 212 -35 31 -36 32 -22 65 46
114 48 242 4 358 -50 134 -115 201 -151 154 -37 -49 -52 -99 -52 -184 0 -79 2
-88 34 -140 18 -30 37 -71 41 -90 9 -42 12 -45 -63 55 -34 44 -82 107 -108
140 -25 33 -59 82 -74 109 l-28 49 30 56 c16 31 38 65 48 76 43 47 67 177 50
275 -13 78 -47 144 -76 148 -52 8 -134 -114 -154 -229 -10 -58 -9 -72 9 -122
11 -31 18 -57 15 -57 -20 0 -183 404 -184 456 0 6 21 24 46 40 53 34 131 134
169 219 45 100 45 248 0 285 -24 20 -60 3 -124 -56 -102 -94 -138 -193 -112
-308 15 -64 -7 -26 -29 50 -22 76 -40 243 -40 374 0 118 4 128 54 140 117 29
203 106 271 245 46 96 52 128 26 154 -81 81 -307 -92 -289 -219 3 -23 7 -21
62 38 54 57 86 77 86 53 0 -11 -147 -141 -159 -141 -15 0 -17 19 -9 106 8 98
45 245 86 342 24 59 31 67 57 70 105 11 208 67 262 142 18 25 46 62 63 83 31
41 53 104 48 140 -3 20 -9 22 -56 21 -109 -3 -180 -40 -243 -127 -16 -22 -29
-37 -29 -33 0 13 89 183 139 265 50 83 59 113 42 140 -24 38 -137 -108 -226
-294 -34 -71 -65 -142 -69 -157 -11 -47 -22 -32 -41 55 -35 164 -31 226 6 86
10 -40 21 -74 24 -77 15 -15 30 64 29 153 0 112 -19 171 -70 218 -47 44 -71
34 -113 -50 -50 -101 -51 -273 -1 -407 23 -61 73 -126 96 -126 21 0 17 -25
-16 -122 -40 -118 -59 -194 -79 -312 -19 -113 -38 -139 -33 -45 5 78 -13 181
-42 244 -42 91 -125 175 -172 175 -41 0 -54 -35 -54 -145 0 -119 17 -192 66
-285 40 -77 84 -123 151 -160 l48 -25 -3 -95 c-4 -126 14 -392 32 -457 13 -48
13 -53 -2 -53 -55 0 -183 132 -169 173 4 13 67 -47 103 -98 26 -36 39 -28 37
24 -4 93 -96 219 -197 270 -85 42 -121 23 -119 -65 3 -118 76 -262 174 -346
69 -58 105 -76 171 -86 l52 -7 22 -75 c29 -101 107 -317 138 -382 14 -29 24
-53 22 -55 -8 -8 -142 39 -176 62 -58 40 -68 55 -38 55 13 0 32 -6 43 -13 27
-18 127 -58 132 -53 8 8 -25 60 -54 88 -46 44 -142 96 -198 109 -42 9 -58 9
-81 -2 -71 -34 -50 -112 61 -224 112 -113 206 -155 347 -155 l68 0 30 -62 c17
-35 67 -108 110 -162 44 -55 78 -101 77 -103 -2 -1 -29 6 -60 17 -78 28 -159
26 -224 -4 -52 -25 -70 -50 -58 -85 10 -33 117 -123 181 -153 101 -47 243 -39
306 19 20 18 3 28 169 -106 403 -324 718 -471 1259 -588 71 -15 131 -18 370
-18 l285 0 146 38 c259 66 410 117 557 187 235 114 344 184 586 378 122 98
129 103 142 84 21 -30 92 -54 155 -53 107 1 203 47 299 141 65 63 72 85 38
117 -69 61 -231 57 -306 -8 -56 -50 -54 -37 8 46 21 28 59 88 84 135 26 47 64
101 85 121 37 35 42 36 127 41 93 6 171 29 228 69 66 46 196 223 196 266 0 26
-35 53 -69 53 -71 0 -203 -47 -268 -97 -30 -22 -43 -59 -28 -75 3 -3 31 3 63
14 76 25 93 21 61 -14 -22 -25 -167 -84 -178 -72 -6 6 10 53 64 179 25 61 59
155 76 209 32 108 42 126 70 126 36 0 126 41 168 76 23 20 53 59 67 88 15 28
41 67 60 86 57 60 93 212 60 254 -35 43 -130 3 -221 -95 -65 -70 -89 -127 -82
-200 4 -47 2 -61 -12 -73 -21 -19 -41 -21 -41 -3 0 7 10 78 21 158 13 86 22
203 23 292 l2 148 47 27 c26 15 57 41 69 58 13 18 35 47 49 65 14 19 43 72 65
119 34 74 39 96 42 171 9 205 -93 200 -219 -12 -42 -71 -44 -77 -46 -161 -1
-49 3 -88 7 -88 5 0 16 25 25 56 16 57 76 136 91 121 12 -11 -41 -108 -86
-159 -20 -24 -42 -52 -48 -63 -10 -17 -11 -14 -12 22 0 68 -60 349 -96 456
-13 39 -24 77 -24 85 0 7 16 33 36 57 71 88 117 314 85 424 -14 50 -60 101
-90 101 -58 0 -115 -109 -127 -243 -6 -71 7 -147 25 -147 4 0 18 32 30 70 13
39 28 73 33 76 14 9 22 -4 11 -18 -6 -7 -13 -26 -17 -43 -11 -45 -47 -125 -57
-125 -9 0 -59 84 -133 223 -56 104 -154 230 -195 252 -17 8 -40 15 -52 15 -18
0 -20 -4 -14 -27z"/>
<path d="M4735 2318 c-70 -38 -82 -82 -34 -122 37 -32 38 -32 80 -3 45 30 51
76 15 112 -28 28 -33 29 -61 13z"/>
<path d="M5466 2299 c-23 -18 -27 -28 -24 -63 3 -36 7 -43 41 -61 l38 -20 25
28 c39 45 29 98 -23 125 -28 15 -26 16 -57 -9z"/>
<path d="M5075 2265 c-17 -16 -25 -35 -25 -59 0 -30 6 -40 42 -66 22 -16 45
-30 51 -30 5 0 24 15 43 34 41 41 43 73 8 115 -33 40 -83 43 -119 6z"/>
<path d="M6162 1640 c-162 -34 -336 -163 -424 -313 -121 -207 -160 -341 -160
-542 0 -157 16 -237 74 -355 81 -164 183 -234 359 -247 89 -7 184 17 260 65
56 36 176 147 199 185 l17 28 27 -53 c36 -71 65 -94 130 -108 83 -17 151 7
223 80 l42 41 16 -36 c10 -19 31 -47 48 -61 28 -23 38 -26 97 -22 58 3 74 9
140 51 l75 48 5 -33 c4 -29 9 -33 38 -36 30 -3 32 -1 32 30 0 18 5 51 10 73 6
22 17 81 25 132 8 50 30 132 50 182 19 50 35 99 35 110 0 14 10 21 36 26 20 3
38 4 41 1 2 -2 -16 -67 -40 -143 -25 -76 -49 -165 -52 -198 -7 -60 -6 -60 44
-131 81 -115 130 -119 257 -24 36 28 69 50 73 50 4 0 34 -23 67 -52 66 -57
117 -83 185 -93 95 -14 241 35 326 109 52 45 123 150 123 182 0 36 -35 66 -73
62 -27 -3 -36 -12 -64 -63 -41 -75 -90 -119 -160 -145 -96 -36 -204 -21 -254
36 -18 21 -49 78 -49 91 0 5 26 13 58 19 86 17 166 59 237 126 68 63 115 142
115 192 -1 44 -32 107 -68 138 -122 103 -309 29 -411 -161 -43 -82 -61 -149
-61 -236 l0 -69 -64 -62 c-46 -46 -74 -65 -101 -70 -27 -5 -40 -3 -46 7 -5 8
-9 10 -9 4 0 -5 -6 0 -14 10 -9 13 -13 40 -11 77 4 65 67 200 143 308 38 53
46 72 47 109 0 60 -25 75 -110 65 -140 -17 -165 -3 -165 91 0 83 -28 101 -105
66 -30 -13 -46 -29 -59 -59 -27 -59 -15 -105 39 -159 l44 -42 -39 -93 c-97
-236 -150 -326 -222 -378 -47 -35 -78 -38 -102 -11 -27 30 -29 80 -6 176 31
131 90 422 90 444 0 14 -10 20 -37 25 -65 10 -72 8 -87 -29 l-15 -35 -50 31
c-47 29 -56 31 -115 27 -82 -7 -151 -44 -217 -116 -72 -78 -96 -126 -128 -251
-22 -85 -38 -126 -67 -169 -70 -101 -165 -178 -266 -217 -61 -23 -166 -17
-224 13 -79 40 -147 138 -175 252 -20 80 -18 316 4 406 35 149 85 268 140 333
93 111 218 187 321 198 66 7 114 -8 152 -48 26 -27 29 -37 28 -93 -1 -115 -69
-196 -164 -196 -33 0 -55 7 -78 24 -54 40 -105 13 -86 -46 19 -64 91 -102 185
-96 57 3 75 9 119 38 98 66 157 190 148 306 -7 77 -64 158 -139 196 -60 31
-141 42 -207 28z m2039 -680 c39 -21 12 -119 -48 -174 -28 -26 -113 -61 -175
-71 l-37 -6 10 33 c5 18 20 55 34 83 58 116 147 172 216 135z m-1316 -18 c55
-34 60 -58 41 -173 -28 -172 -67 -253 -146 -307 -70 -47 -117 -41 -157 20 -58
87 -36 264 45 371 42 55 70 75 127 93 53 17 55 17 90 -4z"/>
<path d="M2080 1579 c-82 -14 -156 -55 -224 -123 -85 -85 -121 -160 -121 -252
0 -61 4 -77 30 -119 41 -66 84 -90 160 -90 98 0 162 55 153 130 -5 43 -31 54
-65 27 -64 -51 -108 -52 -144 -1 -60 84 16 225 160 296 41 20 73 28 136 31 87
5 122 -6 159 -47 19 -21 19 -22 -2 -84 -12 -34 -38 -152 -57 -262 -51 -293
-85 -420 -151 -553 -60 -123 -109 -182 -177 -213 -112 -50 -237 12 -237 117 0
41 5 50 61 110 52 55 59 67 48 81 -10 11 -26 14 -62 10 -85 -8 -155 -86 -165
-186 -14 -147 105 -262 273 -265 60 -1 80 4 135 31 81 40 109 64 153 133 19
31 43 62 52 70 27 23 61 98 93 210 31 106 84 331 96 405 4 22 18 91 32 153 30
131 42 139 85 53 49 -97 54 -147 54 -526 0 -192 4 -360 8 -373 10 -27 42 -45
67 -37 25 8 54 86 76 206 9 52 34 150 55 217 22 68 39 130 39 138 0 8 9 23 20
34 12 12 32 53 45 91 13 39 30 78 38 87 8 10 22 41 32 70 10 31 32 68 56 93
22 23 46 54 55 70 10 20 22 29 39 29 22 0 25 -4 25 -35 0 -19 -6 -81 -14 -137
-49 -348 -57 -668 -21 -802 19 -73 57 -145 107 -201 94 -107 291 -122 355 -26
28 42 29 61 2 95 -27 34 -51 33 -72 -4 -44 -73 -172 -38 -222 61 -30 59 -52
148 -60 249 -8 90 9 377 30 510 8 52 18 156 21 230 10 193 -10 240 -100 240
-52 0 -98 -32 -163 -113 -78 -96 -99 -133 -183 -316 -43 -95 -85 -182 -93
-194 -14 -21 -14 -21 -9 11 13 93 -38 365 -88 461 -33 66 -115 143 -193 181
-62 30 -78 34 -170 36 -56 2 -127 -1 -157 -7z"/>
<path d="M4063 1090 c-27 -11 -25 1 -28 -135 -3 -123 -26 -237 -60 -306 -70
-139 -185 -221 -320 -227 -60 -3 -75 -1 -105 20 -30 20 -89 106 -90 131 0 4
15 7 33 7 41 0 140 33 189 63 48 29 155 146 173 191 28 67 9 164 -41 208 -60
53 -167 63 -251 24 -143 -67 -233 -221 -234 -398 0 -129 16 -182 88 -280 49
-68 103 -91 213 -92 81 0 91 2 171 40 47 23 102 56 122 74 l37 32 -6 -54 c-5
-43 -3 -58 11 -71 19 -20 68 -22 83 -4 6 7 23 64 37 127 59 250 115 381 201
467 55 55 87 63 121 32 23 -22 25 -29 19 -84 -3 -33 -15 -104 -26 -158 -39
-191 -23 -309 49 -370 27 -23 42 -27 90 -27 63 0 96 17 174 86 20 19 41 34 45
34 5 0 23 -22 40 -49 35 -53 68 -71 134 -71 55 0 100 22 158 76 41 38 50 43
50 27 0 -11 15 -37 33 -57 26 -31 41 -39 78 -43 60 -7 87 8 187 102 79 75 103
113 117 187 6 30 3 38 -13 47 -37 20 -50 12 -107 -64 -58 -76 -119 -135 -142
-135 -7 0 -20 11 -29 26 -16 24 -16 33 5 152 11 70 35 190 51 267 17 77 29
154 28 170 -3 29 -5 30 -61 33 -69 4 -64 13 -101 -183 -48 -246 -56 -279 -87
-343 -52 -107 -146 -154 -197 -99 -46 49 -47 146 -1 356 11 52 23 130 26 173
6 77 6 77 -21 88 -43 16 -94 13 -104 -7 -5 -10 -12 -49 -16 -86 -13 -133 -65
-438 -78 -455 -34 -47 -112 -102 -146 -102 -58 0 -66 78 -27 265 40 191 32
290 -29 351 -73 73 -173 60 -278 -34 -23 -20 -47 -50 -54 -67 -13 -28 -13 -26
-8 27 10 92 2 107 -66 123 -8 2 -25 0 -37 -5z m-330 -141 c25 -31 21 -61 -15
-115 -41 -60 -82 -88 -168 -114 -82 -24 -93 -25 -87 -2 48 174 61 197 140 237
59 30 101 28 130 -6z"/>
</g>
</svg>
